HIERARCHY
ROOT SimulationBone
{
	OFFSET 0.000000 0.000000 0.000000
	CHANNELS 6 Xposition Yposition Zposition Zrotation Yrotation Xrotation 
	JOINT Hips
	{
		OFFSET 0.000000 0.000000 0.000000
		CHANNELS 6 Xposition Yposition Zposition Zrotation Yrotation Xrotation 
		JOINT RightUpLeg
		{
			OFFSET 0.103461 1.857818 10.548512
			CHANNELS 3 Zrotation Yrotation Xrotation
			JOINT RightLeg
			{
				OFFSET 43.500000 -0.000019 0.000004
				CHANNELS 3 Zrotation Yrotation Xrotation
				JOINT RightFoot
				{
					OFFSET 42.372200 0.000011 0.000000
					CHANNELS 3 Zrotation Yrotation Xrotation
					JOINT RightToe
					{
						OFFSET 17.300009 0.000002 0.000004
						CHANNELS 3 Zrotation Yrotation Xrotation
						End Site
						{
							OFFSET 0.000000 0.000000 0.000000
						}
					}
				}
			}
		}
		JOINT LeftUpLeg
		{
			OFFSET 0.103461 1.857838 -10.548504
			CHANNELS 3 Zrotation Yrotation Xrotation
			JOINT LeftLeg
			{
				OFFSET 43.500042 -0.000038 0.000017
				CHANNELS 3 Zrotation Yrotation Xrotation
				JOINT LeftFoot
				{
					OFFSET 42.372253 -0.000008 0.000015
					CHANNELS 3 Zrotation Yrotation Xrotation
					JOINT LeftToe
					{
						OFFSET 17.299995 -0.000004 0.000004
						CHANNELS 3 Zrotation Yrotation Xrotation
						End Site
						{
							OFFSET 0.000000 0.000000 0.000000
						}
					}
				}
			}
		}
		JOINT Spine
		{
			OFFSET 6.901970 -2.603733 -0.000002
			CHANNELS 3 Zrotation Yrotation Xrotation
			JOINT Spine1
			{
				OFFSET 12.588097 0.000016 0.000005
				CHANNELS 3 Zrotation Yrotation Xrotation
				JOINT Spine2
				{
					OFFSET 12.343206 -0.000008 -0.000008
					CHANNELS 3 Zrotation Yrotation Xrotation
					JOINT Neck
					{
						OFFSET 25.832890 -0.000023 0.000008
						CHANNELS 3 Zrotation Yrotation Xrotation
						JOINT Head
						{
							OFFSET 11.766625 0.000019 -0.000006
							CHANNELS 3 Zrotation Yrotation Xrotation
							End Site
							{
								OFFSET 0.000000 0.000000 0.000000
							}
						}
					}
					JOINT RightShoulder
					{
						OFFSET 19.745903 -1.480385 6.000111
						CHANNELS 3 Zrotation Yrotation Xrotation
						JOINT RightArm
						{
							OFFSET 11.284122 -0.000021 -0.000025
							CHANNELS 3 Zrotation Yrotation Xrotation
							JOINT RightForeArm
							{
								OFFSET 33.000057 -0.000001 0.000032
								CHANNELS 3 Zrotation Yrotation Xrotation
								JOINT RightHand
								{
									OFFSET 25.200003 0.000023 0.000006
									CHANNELS 3 Zrotation Yrotation Xrotation
									End Site
									{
										OFFSET 0.000000 0.000000 0.000000
									}
								}
							}
						}
					}
					JOINT LeftShoulder
					{
						OFFSET 19.746098 -1.480366 -6.000072
						CHANNELS 3 Zrotation Yrotation Xrotation
						JOINT LeftArm
						{
							OFFSET 11.284136 -0.000004 -0.000006
							CHANNELS 3 Zrotation Yrotation Xrotation
							JOINT LeftForeArm
							{
								OFFSET 33.000092 0.000029 0.000002
								CHANNELS 3 Zrotation Yrotation Xrotation
								JOINT LeftHand
								{
									OFFSET 25.199776 0.000140 0.000420
									CHANNELS 3 Zrotation Yrotation Xrotation
									End Site
									{
										OFFSET 0.000000 0.000000 0.000000
									}
								}
							}
						}
					}
				}
			}
		}
	}
}
MOTION
Frames: 6
Frame Time: 0.033333
191.374822 0.000000 289.343464 180.000000 19.878896 180.000000 0.928197 91.798752 1.206552 96.833287 0.251245 179.698275 -172.842500 -0.458695 -175.734921 -17.523725 -2.518899 2.741903 86.630069 -1.238634 2.987008 21.454560 0.003113 0.000018 171.079860 4.554901 176.659578 -13.297512 2.309805 -1.388449 71.481666 1.852634 2.881115 21.454553 -0.003095 -0.000001 8.783657 -1.296588 0.659095 7.542286 -2.633203 1.232737 7.223894 -2.625849 1.248618 18.797138 -9.530910 6.295130 -11.776459 -0.276677 6.831734 176.907104 -69.722564 1.874043 -11.203033 48.930365 34.852652 -26.841035 -15.328616 1.218960 9.372226 -5.105630 12.749202 -172.595684 80.223215 9.055420 -19.726838 -61.838204 -37.713419 -32.647427 16.115527 -1.355166 -3.042823 14.495579 -9.679721 
190.914132 0.000000 288.516441 180.000000 18.965127 180.000000 0.918397 91.916733 1.171775 96.716519 0.347116 179.581700 -172.660161 -0.902694 -175.627523 -17.615872 -2.326738 3.102197 86.399079 -1.536412 2.713924 21.454557 0.003108 0.000017 171.403529 4.458697 178.694373 -13.716382 2.291108 -2.024952 71.913436 2.155943 2.450655 21.454555 -0.003091 0.000000 8.755352 -1.180791 0.658889 7.486482 -2.401561 1.240404 7.168171 -2.394167 1.253980 18.901683 -9.420071 6.200432 -11.646430 -0.269506 6.737022 176.910888 -69.785327 1.868571 -10.956242 49.936760 34.404056 -27.407988 -15.609424 1.246730 9.287444 -5.099592 12.815627 -172.397526 80.271136 9.257009 -20.367810 -61.647491 -37.308908 -32.911167 16.159280 -1.363629 -2.664651 13.280429 -9.812825 
190.463483 0.000000 287.682511 180.000000 18.096938 180.000000 0.931551 92.039330 1.136373 96.643130 0.447479 179.464788 -172.414083 -1.369296 -175.477655 -17.663330 -2.163928 3.410502 86.116275 -1.799811 2.436251 21.454558 0.003113 0.000018 171.843680 4.227798 -179.191570 -14.001223 2.059795 -2.719512 72.354202 2.453548 1.852356 21.454555 -0.003093 0.000000 8.729380 -1.058425 0.659250 7.435460 -2.156851 1.249476 7.117191 -2.149403 1.262478 19.022543 -9.277818 6.075615 -11.569415 -0.218205 6.598272 176.798600 -69.923262 1.981136 -10.705396 50.936136 34.098893 -28.274871 -15.921958 1.282250 9.152383 -5.137071 12.706525 -172.370001 80.284202 9.285086 -20.941174 -61.318051 -37.004811 -33.325818 16.281530 -1.380486 -2.213631 11.868145 -9.952038 
190.025961 0.000000 286.842918 180.000000 17.275545 180.000000 0.952651 92.168983 1.085705 96.578413 0.547840 179.381244 -172.139113 -1.838592 -175.271465 -17.639303 -2.007097 3.672702 85.787046 -2.034145 2.153047 21.454557 0.003110 0.000017 172.424874 3.912201 -177.768295 -13.981132 1.859224 -3.019307 72.751282 2.525184 1.419087 21.454558 -0.003088 0.000000 8.692865 -0.929458 0.655222 7.363524 -1.898551 1.250262 7.045337 -1.891108 1.261701 19.185105 -9.081500 5.916604 -11.465751 -0.138300 6.417150 176.503795 -70.050768 2.282041 -10.488555 51.734923 34.173178 -29.356126 -16.224337 1.321795 8.970393 -5.154876 12.621268 -172.360780 80.245126 9.294129 -21.500112 -60.908007 -36.745496 -33.735527 16.448598 -1.400252 -1.860986 10.494520 -10.171614 
189.603962 0.000000 286.000888 180.000000 16.504711 180.000000 0.974686 92.285851 1.012913 96.525065 0.622744 179.356693 -171.876806 -2.295300 -175.097596 -17.617551 -1.861435 3.944295 85.469572 -2.272789 1.891096 21.454558 0.003106 0.000017 173.101145 3.595902 -177.307271 -13.738972 1.854237 -2.767068 73.152207 2.272821 1.210442 21.454551 -0.003094 0.000000 8.647414 -0.796519 0.641988 7.273931 -1.631649 1.232863 6.955771 -1.624311 1.242688 19.369008 -8.817391 5.719580 -11.285770 -0.069476 6.199029 176.148680 -70.111482 2.646751 -10.455514 52.261397 34.584089 -30.475775 -16.500894 1.361382 8.717227 -5.120925 12.746831 -172.246347 80.164325 9.409909 -22.094820 -60.476476 -36.432366 -33.994893 16.592775 -1.415300 -1.676227 9.463957 -10.378163 
189.197514 0.000000 285.164382 180.000000 15.785099 180.000000 1.002122 92.387894 0.926088 96.499833 0.682594 179.450356 -171.623215 -2.790408 -174.934614 -17.606588 -1.773721 4.268370 85.182684 -2.539392 1.676780 21.454558 0.003109 0.000018 173.843491 3.279007 -177.476018 -13.392959 1.982685 -2.123499 73.580276 1.776148 1.114178 21.454553 -0.003092 0.000000 8.598517 -0.653751 0.605386 7.177813 -1.343628 1.169220 6.859688 -1.336682 1.177308 19.537594 -8.523675 5.482647 -11.018109 0.001737 5.934656 175.837182 -70.133018 2.967296 -10.677886 52.628131 35.039793 -31.476722 -16.740117 1.397072 8.389696 -5.040955 13.232406 -171.979287 80.087930 9.680728 -22.708856 -60.079157 -36.020232 -34.096738 16.676981 -1.423009 -1.575203 8.930895 -10.440533 
